<?xml version="1.0" encoding="utf-8"?>
<!-- Generator: Adobe Illustrator 27.0.0, SVG Export Plug-In . SVG Version: 6.00 Build 0)  -->
<svg version="1.1" id="Layer_1" xmlns="http://www.w3.org/2000/svg" xmlns:xlink="http://www.w3.org/1999/xlink" x="0px" y="0px"
	 viewBox="0 0 335.8 116.3" style="enable-background:new 0 0 335.8 116.3;" xml:space="preserve">
<style type="text/css">
	.st0{fill:#173980;}
	.st1{fill:#FABC01;}
	.st2{fill:#E1233B;}
</style>
<g>
	<path class="st0" d="M53.7,79.9c0.9,0,5.7-0.1,5.3-0.1c-9.2,0.3-1.6,0.1,0,0l5.4,11.1c-1.5-0.1-3.2-0.2-5.1-0.3
		c-1.9-0.1-3.6-0.1-5.1-0.1H18c0.1-1.5,0.3-3.2,0.3-5.3c0.1-2.1,0.1-3.9,0.1-5.5V34.9c0-1.5,0-3.3-0.1-5.3s0.1,1,0-0.6l14.6-4.9
		c-0.1,1.6-0.2,3.4-0.3,5.5c0,2.1-0.1,3.8-0.1,5.3v45H53.7z"/>
	<path class="st1" d="M117.3,81c0,1.6,0-0.4,0,0.8c0,1.4,0,0.3,0,1.8l-14.5,8.1c0.1-1.5,0.1-3.2,0.2-5.3c0.1-2.1,0.1-3.9,0.1-5.5
		V62.5h-18V81c0,1.6,0-0.8,0,1.3c0,2.1-0.1,0.6,0,2.1l-14.5,7.4c0.1-1.5,0.1-3.2,0.2-5.3c0.1-2.1,0.1-3.9,0.1-5.5V36.2
		c0-1.5,0-0.7,0-2.7c-0.1-2,0-0.4-0.1-2l14.5-6.1c-0.1,1.5-0.1,3.4-0.2,5.4c0,2.1-0.1,3.9-0.1,5.3v15.8h18V36.2c0-4,0.1-1.5-0.1-4.7
		l14.5-6.1c-0.1,1.5-0.1,3.4-0.2,5.4c0,2.1-0.1,3.9-0.1,5.3V81H117.3z"/>
	<path class="st2" d="M143,81.5c0,1.2-0.1-3.6,0-1.9c0,1-0.1,1.1,0,2.3l-14.6,8.5c0.1-1.4,0.3-3.1,0.3-5.1c0.1-2,0.1-3.7,0.1-5.2
		v-43c0-1.4,0-2.8-0.1-4.3c0-1.5,0.3,2.2,0-0.4l14.5-5.7c-0.1,1.2-0.2,2.7-0.3,4.4c0,1.7-0.1,3.1-0.1,4.2v15.9l24.5-22.8l7.3,10.4
		l-22.7,18l23.8,33.5l-19.8-5.6L143,62.6V81.5z"/>
	<path d="M289.4,77.1c-1.3,1-2.5,1.4-3.5,1.4c-6.2,0.2-15.2-11.7-11.9-21.7c3.3-10,17.3-13.7,19.3-11.2c2.7,3.4-12.5,24-20.3,21.7
		c-8.5-2.4-4.5-30.5-11.2-31.9c-7.3-1.5-17.1,30.4-21.7,29.1c-3.8-1.1-3.8-24.4,2.8-26.3c5-1.4,13.8,9.4,16,20.3
		c0.7,3.4,1.7,8.3-0.6,12.6c-5.7,10.5-29.5,14.6-42.7,2.5c-10.9-10.1-11.2-28.3-4.6-39.2c14.2-23.6,63.1-19.6,70.8-3.5
		c6.5,13.6-16.7,36-18.6,37.8c-17.3,16.7-37.5,18-52.9,18.9c-3.6,0.2-7.9,0.2-11.2-2.5c-5.8-4.7-5-14.5-4.2-24.2
		c1.2-14.9,2-24.2,7-27c17.6-10,70.5,70.8,89.3,61.3c13.5-6.8-0.6-55.4,4.2-56.4c3.5-0.8,17.6,23.5,9.1,38.5
		c-6.1,10.7-21,12.1-50.5,15.1c-12.5,1.2-18.7,1.9-23.8,0c-24.6-8.9-36.6-50-25.6-70.4c1.9-3.4,4.6-6.7,4.2-7
		c-1.1-0.9-26.6,21-23.1,29.1C192.9,60.7,318.1,10,327,28.1c4.9,9.9-26.6,36.7-55.9,51.2c-25.5,12.6-73.3,27.5-87.6,9.1
		c-7.8-10-4.5-28.2,1.1-29.8c10.7-3.1,28.4,57.5,42,55c17.3-3.2,20.7-106.6,5.3-110c-5.4-1.2-14.4,9.7-12.3,14.7
		c3.4,7.7,34.2,1.8,60.3-4.6"/>
</g>
</svg>
